<svg class="dome" viewBox="0 0 360 360" xmlns="http://www.w3.org/2000/svg">
  <style>
    .dome text{font-family:Inter,system-ui,sans-serif;}
    .ring{fill:none;stroke:#1E3A5F;stroke-dasharray:3 5;}
    .axis{fill:#5d7299;font-size:10px;letter-spacing:.12em;text-anchor:middle;}
    .spk{fill:#0A1628;stroke:#4a6a99;}
    .sl{fill:#8b9dc3;font-size:8px;font-weight:600;text-anchor:middle;}
    .bl{font-size:11px;font-weight:600;text-anchor:middle;paint-order:stroke;
        stroke:#0A1628;stroke-width:2.5px;}
  </style>
  <defs>
    <radialGradient id="floor" cx="50%" cy="50%" r="50%">
      <stop offset="0%" stop-color="#16335c"/><stop offset="100%" stop-color="#0A1628"/>
    </radialGradient>
    <filter id="glow" x="-50%" y="-50%" width="200%" height="200%">
      <feGaussianBlur stdDeviation="6"/>
    </filter>
  </defs>
  <circle cx="180" cy="180" r="144" fill="url(#floor)"/>
  <circle cx="180" cy="180" r="110" class="ring"/>
  <circle cx="180" cy="180" r="66" class="ring"/>
  <text x="180" y="26" class="axis">FRONT (STAGE)</text>
  <text x="180" y="344" class="axis">BEHIND (ROOM)</text>
  <ellipse cx="180.0" cy="60.0" rx="16.0" ry="14.0" fill="#F4B860" opacity="0.281" filter="url(#glow)"/><ellipse cx="180.0" cy="60.0" rx="16.0" ry="14.0" fill="none" stroke="#F4B860" stroke-opacity="0.55"/><ellipse cx="180.0" cy="78.0" rx="93.0" ry="14.0" fill="#E07A5F" opacity="0.379" filter="url(#glow)"/><ellipse cx="180.0" cy="78.0" rx="93.0" ry="14.0" fill="none" stroke="#E07A5F" stroke-opacity="0.55"/><ellipse cx="180.0" cy="78.0" rx="93.0" ry="14.0" fill="#81B29A" opacity="0.281" filter="url(#glow)"/><ellipse cx="180.0" cy="78.0" rx="93.0" ry="14.0" fill="none" stroke="#81B29A" stroke-opacity="0.55"/><ellipse cx="180.0" cy="168.0" rx="16.0" ry="14.0" fill="#6C8EBF" opacity="0.281" filter="url(#glow)"/><ellipse cx="180.0" cy="168.0" rx="16.0" ry="14.0" fill="none" stroke="#6C8EBF" stroke-opacity="0.55"/><ellipse cx="180.0" cy="176.4" rx="108.0" ry="19.0" fill="#C9697A" opacity="0.403" filter="url(#glow)"/><ellipse cx="180.0" cy="176.4" rx="108.0" ry="19.0" fill="none" stroke="#C9697A" stroke-opacity="0.55"/><ellipse cx="180.0" cy="241.9" rx="104.6" ry="59.7" fill="#3FB8AF" opacity="0.500" filter="url(#glow)"/><ellipse cx="180.0" cy="241.9" rx="104.6" ry="59.7" fill="none" stroke="#3FB8AF" stroke-opacity="0.55"/><ellipse cx="180.0" cy="282.0" rx="87.5" ry="14.0" fill="#9AA8C7" opacity="0.257" filter="url(#glow)"/><ellipse cx="180.0" cy="282.0" rx="87.5" ry="14.0" fill="none" stroke="#9AA8C7" stroke-opacity="0.55"/>
  <circle cx="180.0" cy="60.0" r="3.2" fill="#F4B860"/><text x="180.0" y="52.0" class="bl" fill="#F4B860">Vocals</text><circle cx="180.0" cy="78.0" r="3.2" fill="#E07A5F"/><text x="180.0" y="70.0" class="bl" fill="#E07A5F">Guitar</text><circle cx="180.0" cy="78.0" r="3.2" fill="#81B29A"/><line x1="180.0" y1="78.0" x2="180.0" y2="87.0" stroke="#81B29A" stroke-opacity="0.35"/><text x="180.0" y="85.0" class="bl" fill="#81B29A">Piano</text><circle cx="180.0" cy="168.0" r="3.2" fill="#6C8EBF"/><text x="180.0" y="160.0" class="bl" fill="#6C8EBF">Bass</text><circle cx="180.0" cy="176.4" r="3.2" fill="#C9697A"/><line x1="180.0" y1="176.4" x2="180.0" y2="177.0" stroke="#C9697A" stroke-opacity="0.35"/><text x="180.0" y="175.0" class="bl" fill="#C9697A">Drums</text><circle cx="180.0" cy="241.9" r="3.2" fill="#3FB8AF"/><text x="180.0" y="233.9" class="bl" fill="#3FB8AF">Crowd</text><circle cx="180.0" cy="282.0" r="3.2" fill="#9AA8C7"/><text x="180.0" y="274.0" class="bl" fill="#9AA8C7">Other</text>
  <rect x="87.0" y="69.0" width="18" height="18" rx="3" class="spk"/><text x="96.0" y="81.5" class="sl">FL</text><rect x="255.0" y="69.0" width="18" height="18" rx="3" class="spk"/><text x="264.0" y="81.5" class="sl">FR</text><rect x="171.0" y="51.0" width="18" height="18" rx="3" class="spk"/><text x="180.0" y="63.5" class="sl">FC</text><rect x="171.0" y="159.0" width="18" height="18" rx="3" class="spk"/><text x="180.0" y="171.5" class="sl">LFE</text><rect x="51.0" y="171.0" width="18" height="18" rx="3" class="spk"/><text x="60.0" y="183.5" class="sl">SL</text><rect x="291.0" y="171.0" width="18" height="18" rx="3" class="spk"/><text x="300.0" y="183.5" class="sl">SR</text><rect x="93.0" y="273.0" width="18" height="18" rx="3" class="spk"/><text x="102.0" y="285.5" class="sl">BL</text><rect x="249.0" y="273.0" width="18" height="18" rx="3" class="spk"/><text x="258.0" y="285.5" class="sl">BR</text>
  <circle cx="180" cy="180" r="8" fill="#F0F4F8"/>
  <path d="M 180 164 L 175 173 L 185 173 Z" fill="#F0F4F8"/>
</svg>